# xmcd
#
# Track frame offsets:
#	150
#	18483
#	41490
#	61717
#	76570
#	94196
#	111078
#	130677
#	145892
#	159895
#	177078
#	196815
#	217364
#	236020
#	270097
#	289252
#	309072
#
# Disc length: 4341 seconds
#
# Revision: 1
# Processed by: cddbd v1.5.2PL0 Copyright (c) Steve Scherf et al.
# Submitted via: audiograbber 1.83.01
#
DISCID=d710f311
DTITLE=Various Artist - Deep Fried - A Taste of Edinburgh's Live Music Scene
DYEAR=1900
DGENRE=Funk
TTITLE0=The Big Hand - Let It Out
TTITLE1=The Ruffness - Revolution
TTITLE2=The Rains - Late Night Show
TTITLE3=Terminal Blue - Cherry Tree
TTITLE4=Fleamarket - She's a Lady
TTITLE5=The Hustlers - I'll Go Crazy
TTITLE6=Terminal Blue - Casa Mia
TTITLE7=The Rains - The City
TTITLE8=The Big Hand -  Oh No
TTITLE9=Fleamarket - Marcel's Funky Sandwich
TTITLE10=The Hustlers - How Blue Can You Get
TTITLE11=The Ruffness - Drop The Bombshell
TTITLE12=Moph - North Bridge
TTITLE13=Weird Attractions - Jum'tup
TTITLE14=Moph - Injah Tune
TTITLE15=Berts - Dream
TTITLE16=Cwidder - White and Blue
EXTD=
EXTT0=
EXTT1=
EXTT2=
EXTT3=
EXTT4=
EXTT5=
EXTT6=
EXTT7=
EXTT8=
EXTT9=
EXTT10=
EXTT11=
EXTT12=
EXTT13=
EXTT14=
EXTT15=
EXTT16=
PLAYORDER=
